<svg xmlns="http://www.w3.org/2000/svg" width="1000" height="466" viewBox="0 0 1000 466"><rect width="1000" height="466" fill="#fff"/><rect x="0" y="300" width="60" height="140" fill="#000"/><rect x="60" y="200" width="50" height="240" fill="#000"/><rect x="110" y="260" width="40" height="180" fill="#000"/><rect x="150" y="120" width="70" height="320" fill="#000"/><rect x="150" y="80" width="20" height="40" fill="#000"/><rect x="160" y="40" width="10" height="40" fill="#000"/><rect x="220" y="240" width="45" height="200" fill="#000"/><rect x="265" y="150" width="60" height="290" fill="#000"/><rect x="285" y="100" width="20" height="50" fill="#000"/><rect x="292" y="60" width="6" height="40" fill="#000"/><rect x="325" y="280" width="40" height="160" fill="#000"/><rect x="365" y="170" width="55" height="270" fill="#000"/><rect x="420" y="230" width="40" height="210" fill="#000"/><rect x="460" y="60" width="90" height="380" fill="#000"/><rect x="500" y="20" width="10" height="40" fill="#000"/><rect x="550" y="210" width="45" height="230" fill="#000"/><rect x="595" y="260" width="60" height="180" fill="#000"/><rect x="655" y="140" width="50" height="300" fill="#000"/><rect x="675" y="90" width="10" height="50" fill="#000"/><rect x="705" y="290" width="40" height="150" fill="#000"/><rect x="745" y="190" width="70" height="250" fill="#000"/><rect x="815" y="250" width="40" height="190" fill="#000"/><rect x="855" y="300" width="50" height="140" fill="#000"/><rect x="905" y="220" width="55" height="220" fill="#000"/><rect x="960" y="290" width="40" height="150" fill="#000"/><rect x="0" y="440" width="1000" height="26" fill="#000"/><rect x="162" y="150" width="8" height="14" fill="#fff"/><rect x="186" y="150" width="8" height="14" fill="#fff"/><rect x="162" y="192" width="8" height="14" fill="#fff"/><rect x="186" y="192" width="8" height="14" fill="#fff"/><rect x="162" y="234" width="8" height="14" fill="#fff"/><rect x="186" y="234" width="8" height="14" fill="#fff"/><rect x="162" y="276" width="8" height="14" fill="#fff"/><rect x="186" y="276" width="8" height="14" fill="#fff"/><rect x="162" y="318" width="8" height="14" fill="#fff"/><rect x="186" y="318" width="8" height="14" fill="#fff"/><rect x="162" y="360" width="8" height="14" fill="#fff"/><rect x="186" y="360" width="8" height="14" fill="#fff"/><rect x="162" y="402" width="8" height="14" fill="#fff"/><rect x="186" y="402" width="8" height="14" fill="#fff"/><rect x="277" y="180" width="8" height="14" fill="#fff"/><rect x="301" y="180" width="8" height="14" fill="#fff"/><rect x="277" y="222" width="8" height="14" fill="#fff"/><rect x="301" y="222" width="8" height="14" fill="#fff"/><rect x="277" y="264" width="8" height="14" fill="#fff"/><rect x="301" y="264" width="8" height="14" fill="#fff"/><rect x="277" y="306" width="8" height="14" fill="#fff"/><rect x="301" y="306" width="8" height="14" fill="#fff"/><rect x="277" y="348" width="8" height="14" fill="#fff"/><rect x="301" y="348" width="8" height="14" fill="#fff"/><rect x="277" y="390" width="8" height="14" fill="#fff"/><rect x="301" y="390" width="8" height="14" fill="#fff"/><rect x="472" y="90" width="8" height="14" fill="#fff"/><rect x="496" y="90" width="8" height="14" fill="#fff"/><rect x="520" y="90" width="8" height="14" fill="#fff"/><rect x="472" y="132" width="8" height="14" fill="#fff"/><rect x="496" y="132" width="8" height="14" fill="#fff"/><rect x="520" y="132" width="8" height="14" fill="#fff"/><rect x="472" y="174" width="8" height="14" fill="#fff"/><rect x="496" y="174" width="8" height="14" fill="#fff"/><rect x="520" y="174" width="8" height="14" fill="#fff"/><rect x="472" y="216" width="8" height="14" fill="#fff"/><rect x="496" y="216" width="8" height="14" fill="#fff"/><rect x="520" y="216" width="8" height="14" fill="#fff"/><rect x="472" y="258" width="8" height="14" fill="#fff"/><rect x="496" y="258" width="8" height="14" fill="#fff"/><rect x="520" y="258" width="8" height="14" fill="#fff"/><rect x="472" y="300" width="8" height="14" fill="#fff"/><rect x="496" y="300" width="8" height="14" fill="#fff"/><rect x="520" y="300" width="8" height="14" fill="#fff"/><rect x="472" y="342" width="8" height="14" fill="#fff"/><rect x="496" y="342" width="8" height="14" fill="#fff"/><rect x="520" y="342" width="8" height="14" fill="#fff"/><rect x="472" y="384" width="8" height="14" fill="#fff"/><rect x="496" y="384" width="8" height="14" fill="#fff"/><rect x="520" y="384" width="8" height="14" fill="#fff"/><rect x="757" y="220" width="8" height="14" fill="#fff"/><rect x="781" y="220" width="8" height="14" fill="#fff"/><rect x="757" y="262" width="8" height="14" fill="#fff"/><rect x="781" y="262" width="8" height="14" fill="#fff"/><rect x="757" y="304" width="8" height="14" fill="#fff"/><rect x="781" y="304" width="8" height="14" fill="#fff"/><rect x="757" y="346" width="8" height="14" fill="#fff"/><rect x="781" y="346" width="8" height="14" fill="#fff"/><rect x="757" y="388" width="8" height="14" fill="#fff"/><rect x="781" y="388" width="8" height="14" fill="#fff"/><rect x="667" y="170" width="8" height="14" fill="#fff"/><rect x="691" y="170" width="8" height="14" fill="#fff"/><rect x="667" y="212" width="8" height="14" fill="#fff"/><rect x="691" y="212" width="8" height="14" fill="#fff"/><rect x="667" y="254" width="8" height="14" fill="#fff"/><rect x="691" y="254" width="8" height="14" fill="#fff"/><rect x="667" y="296" width="8" height="14" fill="#fff"/><rect x="691" y="296" width="8" height="14" fill="#fff"/><rect x="667" y="338" width="8" height="14" fill="#fff"/><rect x="691" y="338" width="8" height="14" fill="#fff"/><rect x="667" y="380" width="8" height="14" fill="#fff"/><rect x="691" y="380" width="8" height="14" fill="#fff"/></svg>